# xmcd CD database file
#
# Track frame offsets:
#	150
#	11893
#	25898
#	40292
#	52179
#	67823
#	80701
#	95196
#	107050
#	121108
#	132196
#	146813
#
# Disc length: 2141 seconds
#
# Revision: 0
# Processed by: cddbd v1.5.2PL0 Copyright (c) Steve Scherf et al.
# Submitted via: CDex 1.70beta3
#
DISCID=ac085b0c
DTITLE=ハッチハッチェル - ハムとワイン
DYEAR=2006
DGENRE=Jazz
TTITLE0=黄金の日々
TTITLE1=急げ馬車よ！
TTITLE2=洗濯物行進曲
TTITLE3=ハムとワイン
TTITLE4=花嫁の踊り
TTITLE5=リスボンの紙芝居
TTITLE6=酒場は大盛況
TTITLE7=いい気なもんだョ
TTITLE8=海賊行進曲
TTITLE9=恋の青果市場
TTITLE10=美女と夕日
TTITLE11=さあ、宴会だ
EXTD=YEAR: 2006
EXTT0=
EXTT1=
EXTT2=
EXTT3=
EXTT4=
EXTT5=
EXTT6=
EXTT7=
EXTT8=
EXTT9=
EXTT10=
EXTT11=
PLAYORDER=
